<svg xmlns="http://www.w3.org/2000/svg" viewBox="140.2104 68.2259 234.5351 296.4337" width="234.535px" height="296.434px" xmlns:bx="https://boxy-svg.com">
  <path d="M 311.569 183.152 C 275.546 199.923 314.773 255.666 329.08 280.808 C 343.387 305.95 324.918 279.759 314.233 304.421 C 303.548 329.083 273.664 330.855 252.817 330.799 C 231.97 330.743 207.401 348.537 185.609 341.764 C 164.298 335.141 177.111 324.617 176.549 304.037 C 176.022 284.74 175.708 285.22 173.779 257.783 C 171.85 230.192 161.37 196.037 173.242 174.457 C 185.115 153.032 220.043 138.308 239.134 154.573 C 269.024 180.039 335.468 172.025 311.569 183.152 Z" style="fill: rgb(165, 165, 165); transform-origin: 254.144px 246.776px;" transform="matrix(0.941588103771, 0.336767017841, -0.336767017841, 0.941588103771, 0.000096672514, 0.000088353693)"/>
  <circle cx="156.468" cy="200.227" r="7" transform="matrix(1.3973479270935059, 0.4997730255126953, -0.5190869569778442, 1.4513510465621948, 112.69647216796875, -182.57342529296875)" style="fill: rgb(37, 37, 37);"/>
  <circle cx="181.468" cy="190.227" r="7" transform="matrix(1.3973479270935059, 0.4997730255126953, -0.5190869569778442, 1.4513510465621948, 105.32999420166016, -187.17747497558594)" style="fill: rgb(37, 37, 37);"/>
  <g id="SVGRepo_iconCarrier" transform="matrix(2.021773099899, 2.527008056641, -2.424293041229, 1.939593076706, 284.556013986682, 159.973728944719)" style="transform-origin: 4.55403px 18.709px;">
    <path d="M 13.49 16.533 L 17.647 13.75 M 9.284 13.254 C 12.847 14.24 15.206 18.146 14.553 21.98 C 13.896 25.814 10.476 28.123 6.912 27.138 C 3.348 26.152 0.989 22.246 1.644 18.413 C 2.3 14.578 5.721 12.268 9.284 13.254 Z" stroke-width="2" stroke-linecap="round" stroke-linejoin="round" style="fill: rgba(255, 255, 255, 0); stroke: rgb(255, 255, 255); transform-box: fill-box; transform-origin: 63.4837% 77.1678%;"/>
    <text style="fill: rgb(255, 255, 255); font-family: &quot;Rubik&quot;; font-size: 28px; stroke-linecap: round; stroke-linejoin: round; white-space: pre;" transform="matrix(0.478497, -0.623412, 0.574814, 0.479375, -4.582569, 19.055698)">?</text>
  </g>
</svg>