<svg version="1.1" id="Uploaded to svgrepo.com" xmlns="http://www.w3.org/2000/svg" xmlns:xlink="http://www.w3.org/1999/xlink" viewBox="0 0 32 32" xml:space="preserve" fill="#ffffff"><g id="SVGRepo_bgCarrier" stroke-width="0"></g><g id="SVGRepo_tracerCarrier" stroke-linecap="round" stroke-linejoin="round"></g><g id="SVGRepo_iconCarrier"> <style type="text/css"> .puchipuchi_een{fill:#fff;} </style> <path class="puchipuchi_een" d="M30,18c0,7.732-6.268,14-14,14c-0.552,0-1-0.448-1-1c0-0.552,0.448-1,1-1c3.866,0,7-3.134,7-7 c0-3.866-3.134-7-7-7h-3v2c0,1.1-0.691,1.424-1.536,0.72L2.536,11.28c-0.845-0.704-0.845-1.857,0-2.561l8.927-7.439 C12.309,0.576,13,0.9,13,2v2h3C23.732,4,30,10.268,30,18z"></path> </g></svg>