<?xml version="1.0" encoding="utf-8"?>
<svg xmlns="http://www.w3.org/2000/svg" viewBox="141.8585 111.8182 227.8667 240.0206" width="227.867px" height="240.021px">
  <path d="M 288.705 198.527 C 306.959 218.874 328.04 249.948 333.828 266.749 C 339.615 283.55 319.135 263.599 308.45 288.261 C 297.765 312.923 267.881 314.695 247.034 314.639 C 226.187 314.583 201.618 332.377 179.826 325.604 C 158.515 318.981 171.328 308.457 170.766 287.877 C 170.239 268.58 169.925 269.06 167.996 241.623 C 166.067 214.032 155.587 179.877 167.459 158.297 C 179.332 136.872 210.496 128.086 233.351 138.413 C 256.056 148.741 270.6 178.181 288.705 198.527 Z" style="fill: rgb(165, 165, 165); transform-origin: 248.361px 230.616px;" transform="matrix(0.941588103771, 0.336767017841, -0.336767017841, 0.941588103771, 7.430976230356, 1.212129071982)"/>
  <circle cx="156.468" cy="200.227" r="7" transform="matrix(1.3973479270935059, 0.4997730255126953, -0.5190869569778442, 1.4513510465621948, 101.45311737060547, -200.28457641601562)" style="" fill="rgb(57, 57, 57)"/>
  <circle cx="181.468" cy="190.227" r="7" transform="matrix(1.3973479270935059, 0.4997730255126953, -0.5190869569778442, 1.4513510465621948, 101.45311737060547, -200.28457641601562)" style="" fill="rgb(57, 57, 57)"/>
</svg>