<?xml version="1.0" encoding="utf-8"?>
<svg xmlns="http://www.w3.org/2000/svg" viewBox="118.6594 83.529 244.4086 281.1305" width="244.409px" height="281.13px" xmlns:bx="https://boxy-svg.com">
  <defs>
    <style bx:fonts="Amiko">@import url(https://fonts.googleapis.com/css2?family=Amiko%3Aital%2Cwght%400%2C400%3B0%2C600%3B0%2C700&amp;display=swap);</style>
  </defs>
  <path d="M 285.634 222.744 C 311.976 252.493 314.773 255.666 329.08 280.808 C 343.387 305.95 324.918 279.759 314.233 304.421 C 303.548 329.083 273.664 330.855 252.817 330.799 C 231.97 330.743 207.401 348.536 185.609 341.764 C 164.298 335.141 195.3 299.397 176.538 281.03 C 156.343 261.261 130.869 224.274 153.889 243.53 C 187.563 271.698 163.189 197.032 173.242 174.457 C 183.206 152.08 220.043 138.308 239.134 154.573 C 269.024 180.039 256.936 190.334 285.634 222.744 Z" style="fill: rgb(165, 165, 165); transform-origin: 254.144px 246.776px;" transform="matrix(0.941588103771, 0.336767017841, -0.336767017841, 0.941588103771, 0.000386589506, 0.000378270685)"/>
  <circle cx="156.468" cy="200.227" r="7" transform="matrix(1.3973479270935059, 0.49977302551269537, -0.5190869569778442, 1.4513510465621948, 94.89906311035156, -195.72802734375003)" style="fill: rgb(37, 37, 37);"/>
  <circle cx="181.468" cy="190.227" r="7" transform="matrix(1.3973479270935059, 0.49977302551269537, -0.5190869569778442, 1.4513510465621948, 83.66358947753906, -187.17747497558597)" style="fill: rgb(37, 37, 37);"/>
  <g id="group-1" transform="matrix(3.731734991074, 0.566289901733, 0.204936981201, 3.56365609169, 144.717048897428, 151.177669127655)" style="transform-origin: 12.9235px 39.688px;">
    <path d="M 21.561 48.179 L 22.014 35.039 C 22.014 35.039 21.099 32.886 17.652 32.434 C 14.205 31.98 13.115 34.882 13.115 34.882 C 13.115 34.882 12.235 31.721 8.788 31.267 C 5.341 30.814 4.286 32.705 4.286 32.705 L 3.833 45.845 C 3.833 45.845 4.888 43.954 8.335 44.407 C 11.782 44.861 12.697 47.012 12.697 47.012 C 12.697 47.012 13.752 45.12 17.199 45.574 C 20.646 46.027 21.561 48.179 21.561 48.179 Z" style="transform-origin: 12.952px 39.616px; stroke-linejoin: round; stroke-linecap: round; vector-effect: non-scaling-stroke; stroke-width: 4px; fill: rgb(255, 255, 255); stroke: rgb(255, 255, 255);"/>
  </g>
  <text style="fill: rgb(255, 255, 255); font-family: Amiko; font-size: 46px; text-transform: lowercase; word-spacing: 2.7px; white-space: pre;" x="276.966" y="126.529">...</text>
</svg>